# 3ds Max Wavefront OBJ Exporter v0.97b - (c)2007 guruware
# File Created: 09.06.2014 17:18:11

#
# object Box001
#

v  -0.499999970198 -0.500000119209 -0.499999940395
v  0.499999970198 -0.500000119209 -0.499999940395
v  -0.499999970198 0.499999761581 -0.499999940395
v  0.499999970198 0.499999761581 -0.499999940395
v  -0.499999970198 -0.500000119209 0.499999940395
v  0.499999970198 -0.500000119209 0.499999940395
v  -0.499999970198 0.499999761581 0.499999940395
v  0.499999970198 0.499999761581 0.499999940395
# 8 vertices

vn 0.000000000000 0.000000000000 -1.000000000000
vn 0.000000000000 0.000000000000 -1.000000000000
vn 0.000000000000 0.000000000000 -1.000000000000
vn 0.000000000000 0.000000000000 -1.000000000000
vn 0.000000000000 0.000000000000 1.000000000000
vn 0.000000000000 0.000000000000 1.000000000000
vn 0.000000000000 0.000000000000 1.000000000000
vn 0.000000000000 0.000000000000 1.000000000000
vn 0.000000000000 -1.000000000000 0.000000000000
vn 0.000000000000 -1.000000000000 0.000000000000
vn 0.000000000000 -1.000000000000 0.000000000000
vn 0.000000000000 -1.000000000000 0.000000000000
vn 1.000000000000 0.000000000000 0.000000000000
vn 1.000000000000 0.000000000000 0.000000000000
vn 1.000000000000 0.000000000000 0.000000000000
vn 1.000000000000 0.000000000000 0.000000000000
vn 0.000000000000 1.000000000000 0.000000000000
vn 0.000000000000 1.000000000000 0.000000000000
vn 0.000000000000 1.000000000000 0.000000000000
vn 0.000000000000 1.000000000000 0.000000000000
vn -1.000000000000 0.000000000000 0.000000000000
vn -1.000000000000 0.000000000000 0.000000000000
vn -1.000000000000 0.000000000000 0.000000000000
vn -1.000000000000 0.000000000000 0.000000000000
# 24 vertex normals

g Box001
f 4//1 2//2 1//3 3//4 
f 8//5 7//6 5//7 6//8 
f 6//9 5//10 1//11 2//12 
f 8//13 6//14 2//15 4//16 
f 7//17 8//18 4//19 3//20 
f 5//21 7//22 3//23 1//24 
# 6 polygons

