# 3ds Max Wavefront OBJ Exporter v0.97b - (c)2007 guruware
# File Created: 05.08.2014 23:08:26

#
# object Eggdrop_Leonardh
#

v  -0.689863026142 0.177406311035 -0.028744928539
v  -0.443070650101 0.387316584587 -0.086906753480
v  -0.450166285038 0.149618148804 -0.004277087748
v  0.095445260406 0.231962502003 0.100365057588
v  0.428868293762 0.220532119274 0.033654548228
v  0.457441151142 0.132594048977 0.033654559404
v  0.222606346011 -0.150726109743 0.126881033182
v  -0.491754472256 0.117335796356 -0.021234840155
v  0.095445260406 0.231962472200 -0.095398969948
v  0.428868293762 0.220532119274 -0.028688423336
v  0.457441151142 0.132594048977 -0.028688408434
v  0.222606346011 -0.150726139545 -0.121914811432
v  0.144662842155 -0.150924950838 0.100365132093
v  -0.093084082007 -0.151531487703 0.100365117192
v  0.144662842155 -0.150924980640 -0.095398910344
v  -0.093084082007 -0.151531502604 -0.095398910344
v  0.189787790179 0.228728204966 -0.121914871037
v  0.190081998706 0.228552877903 0.126880973577
v  -0.491754531860 0.126562297344 0.004114583135
v  -0.450166404247 0.140391767025 -0.029626511037
v  -0.132600218058 0.109295934439 -0.060221217573
v  -0.132705733180 0.109407901764 0.064091570675
v  -0.087826520205 -0.151194050908 -0.000501126051
v  -0.162643000484 -0.293488323689 0.127707481384
v  -0.109511107206 -0.289587408304 0.149418830872
v  0.143792673945 -0.149655893445 0.010599762201
v  -0.012113437057 0.324405908585 -0.095607973635
v  -0.073831945658 0.262687385082 -0.095607973635
v  0.045009776950 0.199269890785 -0.040424078703
v  0.087750628591 0.222555994987 -0.040424086154
v  -0.012113437057 0.324405938387 0.090610288084
v  -0.073831960559 0.262687414885 0.090610280633
v  0.045009791851 0.199269890785 0.035391122103
v  0.087750628591 0.222556024790 0.035391118377
v  -0.256441533566 0.200077474117 -0.007656030357
v  -0.377202987671 0.174735605717 -0.007656030357
v  -0.379597365856 0.130664825439 -0.007656022906
v  -0.190459474921 0.111674815416 -0.007656022906
v  0.285771906376 0.150325328112 -0.100625015795
v  0.327090680599 0.113036125898 -0.084265701473
v  0.293684601784 0.070217281580 -0.097492150962
v  0.308093190193 0.057213962078 -0.091787420213
v  0.341293334961 0.099768817425 -0.078642494977
v  0.382439970970 0.062635108829 -0.062351427972
v  0.395808935165 0.079771041870 -0.057058267295
v  0.355644226074 0.116018712521 -0.072960607708
v  0.389511048794 0.159427940845 -0.059551812708
v  0.374120712280 0.173317313194 -0.065645299852
v  0.339841902256 0.129380136728 -0.079217158258
v  0.298592686653 0.166606605053 -0.095548905432
v  0.285771906376 0.150325357914 0.104195594788
v  0.327090680599 0.113036155701 0.087836325169
v  0.293684601784 0.070217341185 0.101062774658
v  0.308093190193 0.057213991880 0.095358029008
v  0.341293334961 0.099768877029 0.082213118672
v  0.382439970970 0.062635153532 0.065922051668
v  0.395808935165 0.079771071672 0.060628876090
v  0.355644226074 0.116018772125 0.076531223953
v  0.389511108398 0.159428000450 0.063122414052
v  0.374120712280 0.173317342997 0.069215878844
v  0.339841961861 0.129380226135 0.082787759602
v  0.298592686653 0.166606664658 0.099119499326
# 62 vertices

vn -0.519254028797 -0.824659049511 0.224304959178
vn -0.495276629925 -0.816343843937 0.297125786543
vn -0.570274949074 -0.821383535862 0.010751516558
vn -0.572114706039 -0.820173621178 0.000000062430
vn 0.035523079336 0.999368846416 0.000205389195
vn 0.034448318183 0.999406278133 0.000663547951
vn 0.034788250923 0.999394595623 0.000518640911
vn 0.036005232483 0.999351620674 -0.000000152137
vn 0.951056361198 0.309017449617 -0.000000000000
vn 0.951056361198 0.309017449617 -0.000000000000
vn 0.951056361198 0.309017449617 -0.000000000000
vn 0.951056361198 0.309017449617 -0.000000000000
vn 0.002551108599 -0.999996721745 0.000000125550
vn 0.002551124897 -0.999996721745 0.000000119786
vn 0.002551057609 -0.999996721745 0.000000143430
vn 0.002551032696 -0.999996721745 0.000000152235
vn -0.155595496297 0.154523909092 0.975659906864
vn -0.155595496297 0.154523909092 0.975659906864
vn -0.155595496297 0.154523909092 0.975659906864
vn -0.155595496297 0.154523909092 0.975659906864
vn 0.342986613512 0.045050714165 -0.938259422779
vn 0.342986613512 0.045050714165 -0.938259422779
vn 0.342986613512 0.045050714165 -0.938259422779
vn 0.342986613512 0.045050714165 -0.938259422779
vn -0.039020791650 -0.229525849223 -0.972519993782
vn -0.039020791650 -0.229525849223 -0.972519993782
vn -0.039020791650 -0.229525849223 -0.972519993782
vn -0.039020791650 -0.229525849223 -0.972519993782
vn -0.056643418968 0.338448882103 0.939278423786
vn -0.056643418968 0.338448882103 0.939278423786
vn -0.056643418968 0.338448882103 0.939278423786
vn -0.056643418968 0.338448882103 0.939278423786
vn 0.343244940042 0.044885713607 0.938172876835
vn 0.343244940042 0.044885713607 0.938172876835
vn 0.343244940042 0.044885713607 0.938172876835
vn 0.343244940042 0.044885713607 0.938172876835
vn 0.103129401803 0.994455277920 -0.020566580817
vn 0.097375437617 0.995247364044 -0.000813758641
vn 0.170672312379 0.949213683605 -0.264318674803
vn 0.189201056957 0.922720611095 -0.335841745138
vn -0.086414396763 0.042481996119 -0.995353162289
vn -0.086414396763 0.042481996119 -0.995353162289
vn -0.086414396763 0.042481996119 -0.995353162289
vn -0.086414396763 0.042481996119 -0.995353162289
vn -0.105353020132 0.094177804887 -0.989965260029
vn -0.105353020132 0.094177804887 -0.989965260029
vn -0.105353020132 0.094177804887 -0.989965260029
vn -0.105353020132 0.094177804887 -0.989965260029
vn -0.089045152068 0.043775610626 0.995065152645
vn -0.089045152068 0.043775610626 0.995065152645
vn -0.089045152068 0.043775610626 0.995065152645
vn -0.089045152068 0.043775610626 0.995065152645
vn -0.091113865376 0.738266944885 0.668326437473
vn -0.091113865376 0.738266944885 0.668326437473
vn -0.091113865376 0.738266944885 0.668326437473
vn -0.091113865376 0.738266944885 0.668326437473
vn -0.257966220379 0.288823336363 0.921973168850
vn -0.278334259987 0.278334170580 0.919271528721
vn -0.207329139113 0.313946813345 0.926526844501
vn -0.178512528539 0.327653974295 0.927780210972
vn 0.258107990026 -0.288979381323 0.921884596348
vn 0.278484433889 -0.278484523296 0.919180512428
vn 0.207440927625 -0.314119875431 0.926443159580
vn 0.178611129522 -0.327833950520 0.927697658539
vn 0.000000002266 0.000000103317 1.000000000000
vn -0.000000035886 0.000000171009 1.000000000000
vn -0.000000018801 0.000000140696 1.000000000000
vn 0.000000009147 0.000000091108 1.000000000000
vn -0.368124574423 -0.000000116686 0.929776489735
vn -0.368124902248 -0.000000346080 0.929776370525
vn -0.368123471737 -0.000000057729 0.929776906967
vn -0.368123769760 -0.000000395647 0.929776787758
vn -0.368125021458 0.000000551504 0.929776310921
vn -0.368125259876 0.000000411497 0.929776191711
vn -0.368124395609 -0.000000170335 0.929776549339
vn -0.368123918772 0.000000518905 0.929776728153
vn -0.368124127388 -0.000001606788 0.929776668549
vn -0.368124067783 -0.000001709273 0.929776668549
vn -0.368123769760 -0.000000395647 0.929776787758
vn -0.368124395609 -0.000000170335 0.929776549339
vn -0.368124157190 0.000001140515 0.929776668549
vn -0.368124425411 0.000001632077 0.929776549339
vn -0.368123918772 0.000000518905 0.929776728153
vn -0.368123471737 -0.000000057729 0.929776906967
vn 0.368124961853 0.000000471466 0.929776310921
vn 0.368125408888 0.000000738303 0.929776132107
vn 0.368123739958 0.000000018601 0.929776787758
vn 0.368123918772 0.000000440796 0.929776728153
vn 0.368124306202 -0.000000518182 0.929776608944
vn 0.368124395609 -0.000000446768 0.929776549339
vn 0.368124157190 0.000000271926 0.929776668549
vn 0.368123710155 -0.000000303629 0.929776847363
vn 0.368124365807 0.000001123423 0.929776549339
vn 0.368124395609 0.000001087718 0.929776549339
vn 0.368123918772 0.000000440796 0.929776728153
vn 0.368124157190 0.000000271926 0.929776668549
vn 0.368123501539 0.000000198308 0.929776906967
vn 0.368123471737 0.000000211348 0.929776906967
vn 0.368123710155 -0.000000303629 0.929776847363
vn 0.368123739958 0.000000018601 0.929776787758
# 100 vertex normals

g Eggdrop_Leonardh
f 19//1 8//2 16//3 14//4 
f 18//5 17//6 9//7 4//8 
f 11//9 10//10 5//11 6//12 
f 15//13 12//14 7//15 13//16 
f 3//17 19//18 14//19 22//20 
f 17//21 10//22 11//23 12//24 
f 8//25 1//26 2//27 20//28 
f 3//29 2//30 1//31 19//32 
f 6//33 5//34 18//35 7//36 
f 22//37 21//38 20//39 3//40 
f 21//41 9//42 15//43 16//44 
f 16//45 8//46 20//47 21//48 
f 14//49 13//50 4//51 22//52 
f 23//53 24//54 25//55 26//56 
f 27//57 28//58 29//59 30//60 
f 31//61 32//62 33//63 34//64 
f 35//65 36//66 37//67 38//68 
f 44//69 45//70 46//71 43//72 
f 50//73 39//74 40//75 49//76 
f 41//77 42//78 43//79 40//80 
f 47//81 48//82 49//83 46//84 
f 56//85 57//86 58//87 55//88 
f 62//89 51//90 52//91 61//92 
f 53//93 54//94 55//95 52//96 
f 59//97 60//98 61//99 58//100 
# 25 polygons

