# 3ds Max Wavefront OBJ Exporter v0.97b - (c)2007 guruware
# File Created: 06.12.2015 23:00:35

mtllib grid_cube_small.mtl

#
# object Default
#

v  -0.500000000000 0.000000000000 -0.467045038939
v  -0.500000000000 0.500000000000 -0.467045038939
v  0.000000000000 0.500000000000 -0.467045038939
v  0.000000000000 0.000000000000 -0.467045038939
v  0.500000000000 0.500000000000 -0.467045038939
v  0.500000000000 0.000000000000 -0.467045038939
v  0.500000000000 -0.500000000000 -0.467045038939
v  0.000000000000 -0.500000000000 -0.467045038939
v  -0.500000000000 -0.500000000000 -0.467045038939
v  0.000000000000 0.500000000000 0.467045068741
v  -0.500000000000 0.500000000000 0.467045068741
v  -0.500000000000 0.000000000000 0.467045068741
v  0.000000000000 0.000000000000 0.467045068741
v  -0.500000000000 -0.500000000000 0.467045068741
v  0.000000000000 -0.500000000000 0.467045068741
v  0.500000000000 -0.500000000000 0.467045068741
v  0.500000000000 0.000000000000 0.467045068741
v  0.500000000000 0.500000000000 0.467045068741
v  -0.500000000000 0.000000000000 -0.002530261874
v  -0.500000000000 0.500000000000 -0.002530261874
v  0.000000000000 0.500000000000 -0.002530261874
v  0.000000000000 0.000000000000 -0.002530261874
v  0.500000000000 0.500000000000 -0.002530261874
v  0.500000000000 0.000000000000 -0.002530261874
v  0.500000000000 -0.500000000000 -0.002530261874
v  0.000000000000 -0.500000000000 -0.002530261874
v  -0.500000000000 -0.500000000000 -0.002530261874
# 27 vertices

vn 0.000000000000 0.000000000000 -1.000000000000
vn 0.000000000000 0.000000000000 -1.000000000000
vn 0.000000000000 0.000000000000 -1.000000000000
vn 0.000000000000 0.000000000000 -1.000000000000
vn 0.000000000000 0.000000000000 -1.000000000000
vn 0.000000000000 0.000000000000 -1.000000000000
vn 0.000000000000 0.000000000000 -1.000000000000
vn 0.000000000000 0.000000000000 -1.000000000000
vn 0.000000000000 0.000000000000 -1.000000000000
vn 0.000000000000 0.000000000000 -1.000000000000
vn 0.000000000000 0.000000000000 -1.000000000000
vn 0.000000000000 0.000000000000 -1.000000000000
vn 0.000000000000 0.000000000000 -1.000000000000
vn 0.000000000000 0.000000000000 -1.000000000000
vn 0.000000000000 0.000000000000 -1.000000000000
vn 0.000000000000 0.000000000000 -1.000000000000
vn 0.000000000000 0.000000000000 1.000000000000
vn 0.000000000000 0.000000000000 1.000000000000
vn 0.000000000000 0.000000000000 1.000000000000
vn 0.000000000000 0.000000000000 1.000000000000
vn 0.000000000000 0.000000000000 1.000000000000
vn 0.000000000000 0.000000000000 1.000000000000
vn 0.000000000000 0.000000000000 1.000000000000
vn 0.000000000000 0.000000000000 1.000000000000
vn 0.000000000000 0.000000000000 1.000000000000
vn 0.000000000000 0.000000000000 1.000000000000
vn 0.000000000000 0.000000000000 1.000000000000
vn 0.000000000000 0.000000000000 1.000000000000
vn 0.000000000000 0.000000000000 1.000000000000
vn 0.000000000000 0.000000000000 1.000000000000
vn 0.000000000000 0.000000000000 1.000000000000
vn 0.000000000000 0.000000000000 1.000000000000
vn 0.000000000000 0.000000000000 -1.000000000000
vn 0.000000000000 0.000000000000 -1.000000000000
vn 0.000000000000 0.000000000000 -1.000000000000
vn 0.000000000000 0.000000000000 -1.000000000000
vn 0.000000000000 0.000000000000 -1.000000000000
vn 0.000000000000 0.000000000000 -1.000000000000
vn 0.000000000000 0.000000000000 -1.000000000000
vn 0.000000000000 0.000000000000 -1.000000000000
vn 0.000000000000 0.000000000000 -1.000000000000
vn 0.000000000000 0.000000000000 -1.000000000000
vn 0.000000000000 0.000000000000 -1.000000000000
vn 0.000000000000 0.000000000000 -1.000000000000
vn 0.000000000000 0.000000000000 -1.000000000000
vn 0.000000000000 0.000000000000 -1.000000000000
vn 0.000000000000 0.000000000000 -1.000000000000
vn 0.000000000000 0.000000000000 -1.000000000000
# 48 vertex normals

g Default
usemtl _cubeDefault
s off
f 1//1 2//2 3//3 4//4 
f 3//5 5//6 6//7 4//8 
f 6//9 7//10 8//11 4//12 
f 8//13 9//14 1//15 4//16 
f 10//17 11//18 12//19 13//20 
f 12//21 14//22 15//23 13//24 
f 15//25 16//26 17//27 13//28 
f 17//29 18//30 10//31 13//32 
f 19//33 20//34 21//35 22//36 
f 21//37 23//38 24//39 22//40 
f 24//41 25//42 26//43 22//44 
f 26//45 27//46 19//47 22//48 
# 12 polygons

