# 3ds Max Wavefront OBJ Exporter v0.97b - (c)2007 guruware
# File Created: 06.12.2015 21:13:29

mtllib grid_sphere.mtl

#
# object Default
#

v  -0.392348796129 0.720716416836 0.675341010094
v  -0.720716416836 0.392348796129 0.675341010094
v  -0.431057989597 0.431057989597 0.790647625923
v  -0.772296071053 0.000000000000 0.706216633320
v  -0.453970015049 0.000000000000 0.856823861599
v  0.000000000000 0.000000000000 0.943310022354
v  0.000000000000 0.453970015049 0.856823861599
v  0.000000000000 0.772296071053 0.706216633320
v  -0.720716416836 -0.392348796129 0.675341010094
v  -0.392348796129 -0.720716416836 0.675341010094
v  -0.431057989597 -0.431057989597 0.790647625923
v  0.000000000000 -0.772296071053 0.706216633320
v  0.000000000000 -0.453970015049 0.856823861599
v  0.392348796129 -0.720716416836 0.675341010094
v  0.720716416836 -0.392348796129 0.675341010094
v  0.431057989597 -0.431057989597 0.790647625923
v  0.772296071053 0.000000000000 0.706216633320
v  0.453970015049 0.000000000000 0.856823861599
v  0.720716416836 0.392348796129 0.675341010094
v  0.392348796129 0.720716416836 0.675341010094
v  0.431057989597 0.431057989597 0.790647625923
v  0.720716416836 -0.392348796129 -0.675341069698
v  0.392348796129 -0.720716416836 -0.675341069698
v  0.431057989597 -0.431057989597 -0.790647685528
v  0.000000000000 -0.772296071053 -0.706216692924
v  0.000000000000 -0.453970015049 -0.856823921204
v  0.000000000000 0.000000000000 -0.943310022354
v  0.453970015049 0.000000000000 -0.856823921204
v  0.772296071053 0.000000000000 -0.706216692924
v  -0.392348796129 -0.720716416836 -0.675341069698
v  -0.720716416836 -0.392348796129 -0.675341069698
v  -0.431057989597 -0.431057989597 -0.790647685528
v  -0.772296071053 0.000000000000 -0.706216692924
v  -0.453970015049 0.000000000000 -0.856823921204
v  -0.720716416836 0.392348796129 -0.675341069698
v  -0.392348796129 0.720716416836 -0.675341069698
v  -0.431057989597 0.431057989597 -0.790647685528
v  0.000000000000 0.772296071053 -0.706216692924
v  0.000000000000 0.453970015049 -0.856823921204
v  0.392348796129 0.720716416836 -0.675341069698
v  0.720716416836 0.392348796129 -0.675341069698
v  0.431057989597 0.431057989597 -0.790647685528
v  -0.447250783443 0.819526314735 0.218224599957
v  -0.819526314735 0.447250783443 0.218224599957
v  -0.535866141319 0.535866141319 0.353620886803
v  -0.896862506866 0.000000000000 0.252032399178
v  -0.606120705605 0.000000000000 0.464030206203
v  0.000000000000 0.000000000000 0.678721904755
v  0.000000000000 0.606120705605 0.464030206203
v  0.000000000000 0.896862506866 0.252032399178
v  -0.819526314735 -0.447250783443 0.218224599957
v  -0.447250783443 -0.819526314735 0.218224599957
v  -0.535866141319 -0.535866141319 0.353620886803
v  0.000000000000 -0.896862506866 0.252032399178
v  0.000000000000 -0.606120705605 0.464030206203
v  0.447250783443 -0.819526314735 0.218224599957
v  0.819526314735 -0.447250783443 0.218224599957
v  0.535866141319 -0.535866141319 0.353620886803
v  0.896862506866 0.000000000000 0.252032399178
v  0.606120705605 0.000000000000 0.464030206203
v  0.819526314735 0.447250783443 0.218224599957
v  0.447250783443 0.819526314735 0.218224599957
v  0.535866141319 0.535866141319 0.353620886803
v  0.819526314735 -0.447250783443 -0.218224614859
v  0.447250783443 -0.819526314735 -0.218224614859
v  0.535866141319 -0.535866141319 -0.353620886803
v  0.000000000000 -0.896862506866 -0.252032339573
v  0.000000000000 -0.606120705605 -0.464030176401
v  0.000000000000 0.000000000000 -0.678721904755
v  0.606120705605 0.000000000000 -0.464030176401
v  0.896862506866 0.000000000000 -0.252032339573
v  -0.447250783443 -0.819526314735 -0.218224614859
v  -0.819526314735 -0.447250783443 -0.218224614859
v  -0.535866141319 -0.535866141319 -0.353620886803
v  -0.896862506866 0.000000000000 -0.252032339573
v  -0.606120705605 0.000000000000 -0.464030176401
v  -0.819526314735 0.447250783443 -0.218224614859
v  -0.447250783443 0.819526314735 -0.218224614859
v  -0.535866141319 0.535866141319 -0.353620886803
v  0.000000000000 0.896862506866 -0.252032339573
v  0.000000000000 0.606120705605 -0.464030176401
v  0.447250783443 0.819526314735 -0.218224614859
v  0.819526314735 0.447250783443 -0.218224614859
v  0.535866141319 0.535866141319 -0.353620886803
# 84 vertices

vn -0.385283857584 0.385283857584 0.838518083096
vn -0.385283857584 0.385283857584 0.838518083096
vn -0.385283857584 0.385283857584 0.838518083096
vn -0.404228389263 0.143050238490 0.903402447701
vn -0.404228389263 0.143050238490 0.903402447701
vn -0.404228389263 0.143050238490 0.903402447701
vn -0.404228389263 0.143050238490 0.903402447701
vn -0.171774297953 0.171774297953 0.970044970512
vn -0.171774297953 0.171774297953 0.970044970512
vn -0.171774297953 0.171774297953 0.970044970512
vn -0.171774297953 0.171774297953 0.970044970512
vn -0.143050238490 0.404228359461 0.903402447701
vn -0.143050238490 0.404228359461 0.903402447701
vn -0.143050238490 0.404228359461 0.903402447701
vn -0.143050238490 0.404228359461 0.903402447701
vn -0.385283857584 -0.385283857584 0.838518083096
vn -0.385283857584 -0.385283857584 0.838518083096
vn -0.385283857584 -0.385283857584 0.838518083096
vn -0.143050238490 -0.404228389263 0.903402447701
vn -0.143050238490 -0.404228389263 0.903402447701
vn -0.143050238490 -0.404228389263 0.903402447701
vn -0.143050238490 -0.404228389263 0.903402447701
vn -0.171774297953 -0.171774297953 0.970044970512
vn -0.171774297953 -0.171774297953 0.970044970512
vn -0.171774297953 -0.171774297953 0.970044970512
vn -0.171774297953 -0.171774297953 0.970044970512
vn -0.404228359461 -0.143050238490 0.903402447701
vn -0.404228359461 -0.143050238490 0.903402447701
vn -0.404228359461 -0.143050238490 0.903402447701
vn -0.404228359461 -0.143050238490 0.903402447701
vn 0.385283857584 -0.385283857584 0.838518083096
vn 0.385283857584 -0.385283857584 0.838518083096
vn 0.385283857584 -0.385283857584 0.838518083096
vn 0.404228389263 -0.143050238490 0.903402447701
vn 0.404228389263 -0.143050238490 0.903402447701
vn 0.404228389263 -0.143050238490 0.903402447701
vn 0.404228389263 -0.143050238490 0.903402447701
vn 0.171774297953 -0.171774297953 0.970044970512
vn 0.171774297953 -0.171774297953 0.970044970512
vn 0.171774297953 -0.171774297953 0.970044970512
vn 0.171774297953 -0.171774297953 0.970044970512
vn 0.143050238490 -0.404228359461 0.903402447701
vn 0.143050238490 -0.404228359461 0.903402447701
vn 0.143050238490 -0.404228359461 0.903402447701
vn 0.143050238490 -0.404228359461 0.903402447701
vn 0.385283857584 0.385283857584 0.838518083096
vn 0.385283857584 0.385283857584 0.838518083096
vn 0.385283857584 0.385283857584 0.838518083096
vn 0.143050238490 0.404228389263 0.903402447701
vn 0.143050238490 0.404228389263 0.903402447701
vn 0.143050238490 0.404228389263 0.903402447701
vn 0.143050238490 0.404228389263 0.903402447701
vn 0.171774297953 0.171774297953 0.970044970512
vn 0.171774297953 0.171774297953 0.970044970512
vn 0.171774297953 0.171774297953 0.970044970512
vn 0.171774297953 0.171774297953 0.970044970512
vn 0.404228359461 0.143050238490 0.903402447701
vn 0.404228359461 0.143050238490 0.903402447701
vn 0.404228359461 0.143050238490 0.903402447701
vn 0.404228359461 0.143050238490 0.903402447701
vn 0.385283857584 -0.385283857584 -0.838518083096
vn 0.385283857584 -0.385283857584 -0.838518083096
vn 0.385283857584 -0.385283857584 -0.838518083096
vn 0.143050238490 -0.404228389263 -0.903402447701
vn 0.143050238490 -0.404228389263 -0.903402447701
vn 0.143050238490 -0.404228389263 -0.903402447701
vn 0.143050238490 -0.404228389263 -0.903402447701
vn 0.171774238348 -0.171774238348 -0.970044970512
vn 0.171774238348 -0.171774238348 -0.970044970512
vn 0.171774238348 -0.171774238348 -0.970044970512
vn 0.171774238348 -0.171774238348 -0.970044970512
vn 0.404228359461 -0.143050238490 -0.903402447701
vn 0.404228359461 -0.143050238490 -0.903402447701
vn 0.404228359461 -0.143050238490 -0.903402447701
vn 0.404228359461 -0.143050238490 -0.903402447701
vn -0.385283857584 -0.385283857584 -0.838518083096
vn -0.385283857584 -0.385283857584 -0.838518083096
vn -0.385283857584 -0.385283857584 -0.838518083096
vn -0.404228389263 -0.143050238490 -0.903402447701
vn -0.404228389263 -0.143050238490 -0.903402447701
vn -0.404228389263 -0.143050238490 -0.903402447701
vn -0.404228389263 -0.143050238490 -0.903402447701
vn -0.171774238348 -0.171774238348 -0.970044970512
vn -0.171774238348 -0.171774238348 -0.970044970512
vn -0.171774238348 -0.171774238348 -0.970044970512
vn -0.171774238348 -0.171774238348 -0.970044970512
vn -0.143050238490 -0.404228359461 -0.903402447701
vn -0.143050238490 -0.404228359461 -0.903402447701
vn -0.143050238490 -0.404228359461 -0.903402447701
vn -0.143050238490 -0.404228359461 -0.903402447701
vn -0.385283857584 0.385283857584 -0.838518083096
vn -0.385283857584 0.385283857584 -0.838518083096
vn -0.385283857584 0.385283857584 -0.838518083096
vn -0.143050238490 0.404228389263 -0.903402447701
vn -0.143050238490 0.404228389263 -0.903402447701
vn -0.143050238490 0.404228389263 -0.903402447701
vn -0.143050238490 0.404228389263 -0.903402447701
vn -0.171774238348 0.171774238348 -0.970044970512
vn -0.171774238348 0.171774238348 -0.970044970512
vn -0.171774238348 0.171774238348 -0.970044970512
vn -0.171774238348 0.171774238348 -0.970044970512
vn -0.404228359461 0.143050238490 -0.903402447701
vn -0.404228359461 0.143050238490 -0.903402447701
vn -0.404228359461 0.143050238490 -0.903402447701
vn -0.404228359461 0.143050238490 -0.903402447701
vn 0.385283857584 0.385283857584 -0.838518083096
vn 0.385283857584 0.385283857584 -0.838518083096
vn 0.385283857584 0.385283857584 -0.838518083096
vn 0.404228389263 0.143050238490 -0.903402447701
vn 0.404228389263 0.143050238490 -0.903402447701
vn 0.404228389263 0.143050238490 -0.903402447701
vn 0.404228389263 0.143050238490 -0.903402447701
vn 0.171774238348 0.171774238348 -0.970044970512
vn 0.171774238348 0.171774238348 -0.970044970512
vn 0.171774238348 0.171774238348 -0.970044970512
vn 0.171774238348 0.171774238348 -0.970044970512
vn 0.143050238490 0.404228359461 -0.903402447701
vn 0.143050238490 0.404228359461 -0.903402447701
vn 0.143050238490 0.404228359461 -0.903402447701
vn 0.143050238490 0.404228359461 -0.903402447701
vn -0.495366632938 0.495366632938 0.713599264622
vn -0.495366632938 0.495366632938 0.713599264622
vn -0.495366632938 0.495366632938 0.713599264622
vn -0.529461681843 0.200408503413 0.824321925640
vn -0.529461681843 0.200408503413 0.824321925640
vn -0.529461681843 0.200408503413 0.824321925640
vn -0.529461681843 0.200408503413 0.824321925640
vn -0.278772681952 0.278772681952 0.919005751610
vn -0.278772681952 0.278772681952 0.919005751610
vn -0.278772681952 0.278772681952 0.919005751610
vn -0.278772681952 0.278772681952 0.919005751610
vn -0.200408488512 0.529461741447 0.824321925640
vn -0.200408488512 0.529461741447 0.824321925640
vn -0.200408488512 0.529461741447 0.824321925640
vn -0.200408488512 0.529461741447 0.824321925640
vn -0.495366632938 -0.495366632938 0.713599264622
vn -0.495366632938 -0.495366632938 0.713599264622
vn -0.495366632938 -0.495366632938 0.713599264622
vn -0.200408503413 -0.529461681843 0.824321925640
vn -0.200408503413 -0.529461681843 0.824321925640
vn -0.200408503413 -0.529461681843 0.824321925640
vn -0.200408503413 -0.529461681843 0.824321925640
vn -0.278772681952 -0.278772681952 0.919005751610
vn -0.278772681952 -0.278772681952 0.919005751610
vn -0.278772681952 -0.278772681952 0.919005751610
vn -0.278772681952 -0.278772681952 0.919005751610
vn -0.529461741447 -0.200408488512 0.824321925640
vn -0.529461741447 -0.200408488512 0.824321925640
vn -0.529461741447 -0.200408488512 0.824321925640
vn -0.529461741447 -0.200408488512 0.824321925640
vn 0.495366632938 -0.495366632938 0.713599264622
vn 0.495366632938 -0.495366632938 0.713599264622
vn 0.495366632938 -0.495366632938 0.713599264622
vn 0.529461681843 -0.200408503413 0.824321925640
vn 0.529461681843 -0.200408503413 0.824321925640
vn 0.529461681843 -0.200408503413 0.824321925640
vn 0.529461681843 -0.200408503413 0.824321925640
vn 0.278772681952 -0.278772681952 0.919005751610
vn 0.278772681952 -0.278772681952 0.919005751610
vn 0.278772681952 -0.278772681952 0.919005751610
vn 0.278772681952 -0.278772681952 0.919005751610
vn 0.200408488512 -0.529461741447 0.824321925640
vn 0.200408488512 -0.529461741447 0.824321925640
vn 0.200408488512 -0.529461741447 0.824321925640
vn 0.200408488512 -0.529461741447 0.824321925640
vn 0.495366632938 0.495366632938 0.713599264622
vn 0.495366632938 0.495366632938 0.713599264622
vn 0.495366632938 0.495366632938 0.713599264622
vn 0.200408503413 0.529461681843 0.824321925640
vn 0.200408503413 0.529461681843 0.824321925640
vn 0.200408503413 0.529461681843 0.824321925640
vn 0.200408503413 0.529461681843 0.824321925640
vn 0.278772681952 0.278772681952 0.919005751610
vn 0.278772681952 0.278772681952 0.919005751610
vn 0.278772681952 0.278772681952 0.919005751610
vn 0.278772681952 0.278772681952 0.919005751610
vn 0.529461741447 0.200408488512 0.824321925640
vn 0.529461741447 0.200408488512 0.824321925640
vn 0.529461741447 0.200408488512 0.824321925640
vn 0.529461741447 0.200408488512 0.824321925640
vn 0.495366573334 -0.495366573334 -0.713599264622
vn 0.495366573334 -0.495366573334 -0.713599264622
vn 0.495366573334 -0.495366573334 -0.713599264622
vn 0.200408414006 -0.529461741447 -0.824321925640
vn 0.200408414006 -0.529461741447 -0.824321925640
vn 0.200408414006 -0.529461741447 -0.824321925640
vn 0.200408414006 -0.529461741447 -0.824321925640
vn 0.278772681952 -0.278772681952 -0.919005751610
vn 0.278772681952 -0.278772681952 -0.919005751610
vn 0.278772681952 -0.278772681952 -0.919005751610
vn 0.278772681952 -0.278772681952 -0.919005751610
vn 0.529461801052 -0.200408458710 -0.824322044849
vn 0.529461801052 -0.200408458710 -0.824322044849
vn 0.529461801052 -0.200408458710 -0.824322044849
vn 0.529461801052 -0.200408458710 -0.824322044849
vn -0.495366573334 -0.495366573334 -0.713599264622
vn -0.495366573334 -0.495366573334 -0.713599264622
vn -0.495366573334 -0.495366573334 -0.713599264622
vn -0.529461741447 -0.200408414006 -0.824321925640
vn -0.529461741447 -0.200408414006 -0.824321925640
vn -0.529461741447 -0.200408414006 -0.824321925640
vn -0.529461741447 -0.200408414006 -0.824321925640
vn -0.278772681952 -0.278772681952 -0.919005751610
vn -0.278772681952 -0.278772681952 -0.919005751610
vn -0.278772681952 -0.278772681952 -0.919005751610
vn -0.278772681952 -0.278772681952 -0.919005751610
vn -0.200408458710 -0.529461801052 -0.824322044849
vn -0.200408458710 -0.529461801052 -0.824322044849
vn -0.200408458710 -0.529461801052 -0.824322044849
vn -0.200408458710 -0.529461801052 -0.824322044849
vn -0.495366573334 0.495366573334 -0.713599264622
vn -0.495366573334 0.495366573334 -0.713599264622
vn -0.495366573334 0.495366573334 -0.713599264622
vn -0.200408414006 0.529461741447 -0.824321925640
vn -0.200408414006 0.529461741447 -0.824321925640
vn -0.200408414006 0.529461741447 -0.824321925640
vn -0.200408414006 0.529461741447 -0.824321925640
vn -0.278772681952 0.278772681952 -0.919005751610
vn -0.278772681952 0.278772681952 -0.919005751610
vn -0.278772681952 0.278772681952 -0.919005751610
vn -0.278772681952 0.278772681952 -0.919005751610
vn -0.529461801052 0.200408458710 -0.824322044849
vn -0.529461801052 0.200408458710 -0.824322044849
vn -0.529461801052 0.200408458710 -0.824322044849
vn -0.529461801052 0.200408458710 -0.824322044849
vn 0.495366573334 0.495366573334 -0.713599264622
vn 0.495366573334 0.495366573334 -0.713599264622
vn 0.495366573334 0.495366573334 -0.713599264622
vn 0.529461741447 0.200408414006 -0.824321925640
vn 0.529461741447 0.200408414006 -0.824321925640
vn 0.529461741447 0.200408414006 -0.824321925640
vn 0.529461741447 0.200408414006 -0.824321925640
vn 0.278772681952 0.278772681952 -0.919005751610
vn 0.278772681952 0.278772681952 -0.919005751610
vn 0.278772681952 0.278772681952 -0.919005751610
vn 0.278772681952 0.278772681952 -0.919005751610
vn 0.200408458710 0.529461801052 -0.824322044849
vn 0.200408458710 0.529461801052 -0.824322044849
vn 0.200408458710 0.529461801052 -0.824322044849
vn 0.200408458710 0.529461801052 -0.824322044849
# 240 vertex normals

g Default
usemtl _cubeDefault
s off
f 1//1 2//2 3//3 
f 2//4 4//5 5//6 3//7 
f 5//8 6//9 7//10 3//11 
f 7//12 8//13 1//14 3//15 
f 9//16 10//17 11//18 
f 10//19 12//20 13//21 11//22 
f 13//23 6//24 5//25 11//26 
f 5//27 4//28 9//29 11//30 
f 14//31 15//32 16//33 
f 15//34 17//35 18//36 16//37 
f 18//38 6//39 13//40 16//41 
f 13//42 12//43 14//44 16//45 
f 19//46 20//47 21//48 
f 20//49 8//50 7//51 21//52 
f 7//53 6//54 18//55 21//56 
f 18//57 17//58 19//59 21//60 
f 22//61 23//62 24//63 
f 23//64 25//65 26//66 24//67 
f 26//68 27//69 28//70 24//71 
f 28//72 29//73 22//74 24//75 
f 30//76 31//77 32//78 
f 31//79 33//80 34//81 32//82 
f 34//83 27//84 26//85 32//86 
f 26//87 25//88 30//89 32//90 
f 35//91 36//92 37//93 
f 36//94 38//95 39//96 37//97 
f 39//98 27//99 34//100 37//101 
f 34//102 33//103 35//104 37//105 
f 40//106 41//107 42//108 
f 41//109 29//110 28//111 42//112 
f 28//113 27//114 39//115 42//116 
f 39//117 38//118 40//119 42//120 
f 43//121 44//122 45//123 
f 44//124 46//125 47//126 45//127 
f 47//128 48//129 49//130 45//131 
f 49//132 50//133 43//134 45//135 
f 51//136 52//137 53//138 
f 52//139 54//140 55//141 53//142 
f 55//143 48//144 47//145 53//146 
f 47//147 46//148 51//149 53//150 
f 56//151 57//152 58//153 
f 57//154 59//155 60//156 58//157 
f 60//158 48//159 55//160 58//161 
f 55//162 54//163 56//164 58//165 
f 61//166 62//167 63//168 
f 62//169 50//170 49//171 63//172 
f 49//173 48//174 60//175 63//176 
f 60//177 59//178 61//179 63//180 
f 64//181 65//182 66//183 
f 65//184 67//185 68//186 66//187 
f 68//188 69//189 70//190 66//191 
f 70//192 71//193 64//194 66//195 
f 72//196 73//197 74//198 
f 73//199 75//200 76//201 74//202 
f 76//203 69//204 68//205 74//206 
f 68//207 67//208 72//209 74//210 
f 77//211 78//212 79//213 
f 78//214 80//215 81//216 79//217 
f 81//218 69//219 76//220 79//221 
f 76//222 75//223 77//224 79//225 
f 82//226 83//227 84//228 
f 83//229 71//230 70//231 84//232 
f 70//233 69//234 81//235 84//236 
f 81//237 80//238 82//239 84//240 
# 48 polygons - 16 triangles

