# 3ds Max Wavefront OBJ Exporter v0.97b - (c)2007 guruware
# File Created: 02.01.2016 11:04:13

mtllib logo_s.mtl

#
# object logo_s
#

v  -0.449999988079 0.275000065565 -0.450836956501
v  -0.449999988079 0.091666765511 -0.450836986303
v  -0.449999988079 0.091666631401 0.449162989855
v  -0.449999988079 0.274999946356 0.449163019657
v  -0.082999996841 0.091666765511 -0.450836986303
v  -0.082999996841 0.091666631401 0.449162989855
v  0.449999988079 0.275000065565 -0.450836956501
v  0.100000001490 0.275000065565 -0.450836956501
v  0.100000001490 0.274999946356 0.449163019657
v  0.449999988079 0.274999946356 0.449163019657
v  0.268000006676 0.091666631401 0.449162989855
v  0.268000006676 0.091666765511 -0.450836986303
v  -0.268000006676 -0.091666631401 -0.450836986303
v  -0.268000006676 -0.091666765511 0.449162989855
v  0.449999988079 -0.091666631401 -0.450836986303
v  0.449999988079 -0.091666765511 0.449162989855
v  0.449999988079 -0.275000065565 0.449162960052
v  0.449999988079 -0.274999946356 -0.450837016106
v  0.085000000894 -0.091666631401 -0.450836986303
v  0.085000000894 -0.091666765511 0.449162989855
v  -0.100000001490 -0.275000065565 0.449162960052
v  -0.100000001490 -0.274999946356 -0.450837016106
v  -0.449999988079 -0.274999946356 -0.450837016106
v  -0.449999988079 -0.275000065565 0.449162960052
# 24 vertices

vn -1.000000000000 0.000000000000 -0.000000000000
vn -1.000000000000 0.000000000000 -0.000000000000
vn -1.000000000000 0.000000000000 -0.000000000000
vn -1.000000000000 0.000000000000 -0.000000000000
vn 0.000000000000 -1.000000000000 -0.000000149012
vn 0.000000000000 -1.000000000000 -0.000000149012
vn 0.000000000000 -1.000000000000 -0.000000149012
vn 0.000000000000 -1.000000000000 -0.000000149012
vn 0.000000000000 1.000000000000 0.000000132455
vn 0.000000000000 1.000000000000 0.000000132455
vn 0.000000000000 1.000000000000 0.000000132455
vn 0.000000000000 1.000000000000 0.000000132455
vn 0.709682762623 -0.704521417618 -0.000000102906
vn 0.709682703018 -0.704521417618 -0.000000093317
vn 0.708717048168 -0.705492854118 -0.000000100332
vn 0.708716988564 -0.705492913723 -0.000000105127
vn -0.703900158405 0.710298955441 0.000000105843
vn -0.706797301769 0.707416117191 0.000000100619
vn -0.706797361374 0.707416057587 0.000000105413
vn -0.703900158405 0.710298955441 0.000000105843
vn 1.000000000000 0.000000000000 -0.000000000000
vn 1.000000000000 0.000000000000 -0.000000000000
vn 1.000000000000 0.000000000000 -0.000000000000
vn 1.000000000000 0.000000000000 -0.000000000000
vn 0.000000000000 1.000000000000 0.000000149012
vn 0.000000000000 1.000000000000 0.000000149012
vn 0.000000000000 1.000000000000 0.000000149012
vn 0.000000000000 1.000000000000 0.000000149012
vn 0.000000000000 0.000000092814 -1.000000000000
vn 0.000000000000 0.000000121836 -1.000000000000
vn 0.000000000000 0.000000092906 -1.000000000000
vn 0.000000000000 0.000000122047 -1.000000000000
vn 0.000000000000 -1.000000000000 -0.000000132455
vn 0.000000000000 -1.000000000000 -0.000000132455
vn 0.000000000000 -1.000000000000 -0.000000132455
vn 0.000000000000 -1.000000000000 -0.000000132455
vn 0.000000000000 -1.000000000000 -0.000000132455
vn 0.000000000000 -1.000000000000 -0.000000132455
vn 0.000000000000 -1.000000000000 -0.000000132455
vn 0.000000000000 -1.000000000000 -0.000000132455
vn 0.000000000000 1.000000000000 0.000000132455
vn 0.000000000000 1.000000000000 0.000000132455
vn 0.000000000000 1.000000000000 0.000000132455
vn 0.000000000000 1.000000000000 0.000000132455
vn 0.000000000000 0.000000092906 -1.000000000000
vn 0.000000000000 0.000000162558 -1.000000000000
vn 0.000000000000 0.000000162558 -1.000000000000
vn 0.000000000000 0.000000162558 -1.000000000000
vn 0.000000000000 0.000000092814 -1.000000000000
vn 0.000000000000 0.000000162558 -1.000000000000
vn 0.000000000000 0.000000162558 -1.000000000000
vn 0.000000000000 0.000000162558 -1.000000000000
vn 0.000000000000 0.000000121836 -1.000000000000
vn 0.000000000000 0.000000092814 -1.000000000000
vn 0.000000000000 0.000000162558 -1.000000000000
vn 0.000000000000 0.000000162558 -1.000000000000
vn 0.000000000000 -0.000000162558 1.000000000000
vn 0.000000000000 -0.000000162558 1.000000000000
vn 0.000000000000 -0.000000092906 1.000000000000
vn 0.000000000000 -0.000000162558 1.000000000000
vn 0.000000000000 -0.000000162558 1.000000000000
vn 0.000000000000 -0.000000092906 1.000000000000
vn 0.000000000000 -0.000000122047 1.000000000000
vn 0.000000000000 -0.000000162558 1.000000000000
vn 0.000000000000 -0.000000121836 1.000000000000
vn 0.000000000000 -0.000000162558 1.000000000000
vn 0.000000000000 -0.000000162558 1.000000000000
vn 0.000000000000 -0.000000092814 1.000000000000
vn 0.000000000000 -0.000000092814 1.000000000000
vn 0.000000000000 -0.000000162558 1.000000000000
vn 0.000000000000 -0.000000162558 1.000000000000
vn 0.000000000000 -0.000000162558 1.000000000000
vn 0.000000000000 0.000000162558 -1.000000000000
vn 0.000000000000 0.000000162558 -1.000000000000
vn 0.000000000000 0.000000122047 -1.000000000000
vn 0.000000000000 0.000000092906 -1.000000000000
vn 0.000000000000 -0.000000092814 1.000000000000
vn 0.000000000000 -0.000000122047 1.000000000000
vn 0.000000000000 -0.000000092906 1.000000000000
vn 0.000000000000 -0.000000121836 1.000000000000
vn 0.708716988564 -0.705492913723 -0.000000105127
vn 0.708717048168 -0.705492854118 -0.000000100332
vn 0.707750022411 -0.706462919712 -0.000000105271
vn 0.707750022411 -0.706462979317 -0.000000105271
vn -0.706797301769 0.707416117191 0.000000100619
vn -0.709682703018 0.704521417618 0.000000093317
vn -0.709682703018 0.704521417618 0.000000102906
vn -0.706797361374 0.707416057587 0.000000105413
# 88 vertex normals

g logo_s
usemtl logo_letter
s 1
f 1//1 2//2 3//3 4//4 
s 2
f 5//5 6//6 3//7 2//8 
f 7//9 8//10 9//11 10//12 
s 1
f 7//13 10//14 11//15 12//16 
f 5//17 13//18 14//19 6//20 
f 15//21 16//22 17//23 18//24 
s 2
f 19//25 20//26 16//27 15//28 
s 4
f 5//29 12//30 19//31 13//32 
s 2
f 17//33 21//34 22//35 18//36 
f 23//37 22//38 21//39 24//40 
f 4//41 9//42 8//43 1//44 
s 4
f 19//45 15//46 18//47 22//48 
f 5//49 2//50 1//51 8//52 
f 12//53 5//54 8//55 7//56 
f 17//57 16//58 20//59 21//60 
f 21//61 20//62 14//63 24//64 
f 11//65 10//66 9//67 6//68 
f 6//69 9//70 4//71 3//72 
f 22//73 23//74 13//75 19//76 
f 6//77 14//78 20//79 11//80 
s 1
f 12//81 11//82 20//83 19//84 
f 13//85 23//86 24//87 14//88 
# 22 polygons

