# 3ds Max Wavefront OBJ Exporter v0.97b - (c)2007 guruware
# File Created: 08.12.2015 20:18:26

mtllib geosphere.mtl

#
# object GeoSphere001
#

v  0.000000000000 10.000000000000 -0.000000000000
v  5.257310867310 8.506507873535 -0.000000000000
v  1.624598383904 8.506507873535 -5.000000000000
v  8.944272041321 4.472136020660 -0.000000000000
v  6.881909370422 5.257310867310 -5.000000000000
v  2.763931751251 4.472136020660 -8.506508827209
v  -4.253254413605 8.506507873535 -3.090169429779
v  -2.628655910492 5.257310867310 -8.090169906616
v  -7.236068725586 4.472136020660 -5.257310390472
v  -4.253253936768 8.506507873535 3.090170383453
v  -8.506507873535 5.257310867310 0.000001066240
v  -7.236067771912 4.472136020660 5.257312297821
v  1.624599099159 8.506507873535 4.999999523163
v  -2.628654718399 5.257310867310 8.090169906616
v  2.763933181763 4.472136020660 8.506507873535
v  6.881909847260 5.257311344147 4.999999523163
v  9.510564804077 0.000000000000 3.090170145035
v  9.510564804077 0.000000000000 -3.090169906616
v  7.236067771912 -4.472136020660 5.257311820984
v  8.506507873535 -5.257310867310 0.000000266560
v  7.236068248749 -4.472136020660 -5.257311344147
v  5.877852439880 0.000000000000 -8.090169906616
v  -0.000000399840 0.000000000000 -10.000000000000
v  2.628655195236 -5.257310867310 -8.090169906616
v  -2.763932466507 -4.472136020660 -8.506507873535
v  -5.877852916718 0.000000000000 -8.090168952942
v  -9.510564804077 0.000000000000 -3.090168714523
v  -6.881909847260 -5.257310867310 -4.999999046326
v  -8.944272041321 -4.472136020660 0.000000781933
v  -9.510564804077 0.000000000000 3.090171098709
v  -5.877851009369 0.000000000000 8.090171813965
v  -6.881908416748 -5.257311820984 5.000001430511
v  -2.763928890228 -4.472136020660 8.506508827209
v  0.000002399041 0.000000000000 9.999999046326
v  5.877852916718 0.000000000000 8.090169906616
v  2.628656864166 -5.257309913635 8.090168952942
v  0.000000000000 -10.000000000000 -0.000000000000
v  -1.624598741531 -8.506507873535 -4.999999523163
v  4.253253936768 -8.506507873535 -3.090169906616
v  -5.257310867310 -8.506507873535 0.000000459609
v  -1.624596595764 -8.506507873535 5.000000000000
v  4.253253936768 -8.506507873535 3.090170145035
# 42 vertices

vn 0.000000015769 1.000000000000 0.000000013140
vn 0.525731086731 0.850650787354 -0.000000018570
vn 0.162459880114 0.850650846958 -0.499999970198
vn 0.525731086731 0.850650787354 -0.000000018570
vn 0.894427180290 0.447213619947 -0.000000021025
vn 0.688190996647 0.525731086731 -0.500000000000
vn 0.525731086731 0.850650787354 -0.000000018570
vn 0.688190996647 0.525731086731 -0.500000000000
vn 0.162459880114 0.850650846958 -0.499999970198
vn 0.162459880114 0.850650846958 -0.499999970198
vn 0.688190996647 0.525731086731 -0.500000000000
vn 0.276393204927 0.447213590145 -0.850650846958
vn 0.000000015769 1.000000000000 0.000000013140
vn 0.162459880114 0.850650846958 -0.499999970198
vn -0.425325453281 0.850650787354 -0.309016913176
vn 0.162459880114 0.850650846958 -0.499999970198
vn 0.276393204927 0.447213590145 -0.850650846958
vn -0.262865632772 0.525731146336 -0.809016942978
vn 0.162459880114 0.850650846958 -0.499999970198
vn -0.262865632772 0.525731146336 -0.809016942978
vn -0.425325453281 0.850650787354 -0.309016913176
vn -0.425325453281 0.850650787354 -0.309016913176
vn -0.262865632772 0.525731146336 -0.809016942978
vn -0.723606884480 0.447213530540 -0.525731027126
vn 0.000000015769 1.000000000000 0.000000013140
vn -0.425325453281 0.850650787354 -0.309016913176
vn -0.425325334072 0.850650846958 0.309017062187
vn -0.425325453281 0.850650787354 -0.309016913176
vn -0.723606884480 0.447213530540 -0.525731027126
vn -0.850650846958 0.525731027126 0.000000068976
vn -0.425325453281 0.850650787354 -0.309016913176
vn -0.850650846958 0.525731027126 0.000000068976
vn -0.425325334072 0.850650846958 0.309017062187
vn -0.425325334072 0.850650846958 0.309017062187
vn -0.850650846958 0.525731027126 0.000000068976
vn -0.723606705666 0.447213619947 0.525731205940
vn 0.000000015769 1.000000000000 0.000000013140
vn -0.425325334072 0.850650846958 0.309017062187
vn 0.162459880114 0.850650846958 0.499999910593
vn -0.425325334072 0.850650846958 0.309017062187
vn -0.723606705666 0.447213619947 0.525731205940
vn -0.262865394354 0.525731086731 0.809017062187
vn -0.425325334072 0.850650846958 0.309017062187
vn -0.262865394354 0.525731086731 0.809017062187
vn 0.162459880114 0.850650846958 0.499999910593
vn 0.162459880114 0.850650846958 0.499999910593
vn -0.262865394354 0.525731086731 0.809017062187
vn 0.276393264532 0.447213590145 0.850650787354
vn 0.000000015769 1.000000000000 0.000000013140
vn 0.162459880114 0.850650846958 0.499999910593
vn 0.525731086731 0.850650787354 -0.000000018570
vn 0.162459880114 0.850650846958 0.499999910593
vn 0.276393264532 0.447213590145 0.850650787354
vn 0.688190996647 0.525731146336 0.499999940395
vn 0.162459880114 0.850650846958 0.499999910593
vn 0.688190996647 0.525731146336 0.499999940395
vn 0.525731086731 0.850650787354 -0.000000018570
vn 0.525731086731 0.850650787354 -0.000000018570
vn 0.688190996647 0.525731146336 0.499999940395
vn 0.894427180290 0.447213619947 -0.000000021025
vn 0.894427180290 0.447213619947 -0.000000021025
vn 0.951056540012 -0.000000010612 0.309016972780
vn 0.951056540012 0.000000000000 -0.309016972780
vn 0.951056540012 -0.000000010612 0.309016972780
vn 0.723606765270 -0.447213590145 0.525731146336
vn 0.850650846958 -0.525731086731 0.000000026529
vn 0.951056540012 -0.000000010612 0.309016972780
vn 0.850650846958 -0.525731086731 0.000000026529
vn 0.951056540012 0.000000000000 -0.309016972780
vn 0.951056540012 0.000000000000 -0.309016972780
vn 0.850650846958 -0.525731086731 0.000000026529
vn 0.723606824875 -0.447213619947 -0.525731086731
vn 0.276393204927 0.447213590145 -0.850650846958
vn 0.587785243988 -0.000000002653 -0.809017002583
vn -0.000000091858 -0.000000063670 -1.000000000000
vn 0.587785243988 -0.000000002653 -0.809017002583
vn 0.723606824875 -0.447213619947 -0.525731086731
vn 0.262865513563 -0.525731146336 -0.809017002583
vn 0.587785243988 -0.000000002653 -0.809017002583
vn 0.262865513563 -0.525731146336 -0.809017002583
vn -0.000000091858 -0.000000063670 -1.000000000000
vn -0.000000091858 -0.000000063670 -1.000000000000
vn 0.262865513563 -0.525731146336 -0.809017002583
vn -0.276393294334 -0.447213619947 -0.850650787354
vn -0.723606884480 0.447213530540 -0.525731027126
vn -0.587785363197 -0.000000013265 -0.809016942978
vn -0.951056540012 -0.000000010612 -0.309016913176
vn -0.587785363197 -0.000000013265 -0.809016942978
vn -0.276393294334 -0.447213619947 -0.850650787354
vn -0.688191056252 -0.525731086731 -0.499999910593
vn -0.587785363197 -0.000000013265 -0.809016942978
vn -0.688191056252 -0.525731086731 -0.499999910593
vn -0.951056540012 -0.000000010612 -0.309016913176
vn -0.951056540012 -0.000000010612 -0.309016913176
vn -0.688191056252 -0.525731086731 -0.499999910593
vn -0.894427180290 -0.447213560343 0.000000023653
vn -0.723606705666 0.447213619947 0.525731205940
vn -0.951056480408 -0.000000018570 0.309017032385
vn -0.587784945965 -0.000000042447 0.809017181396
vn -0.951056480408 -0.000000018570 0.309017032385
vn -0.894427180290 -0.447213560343 0.000000023653
vn -0.688190817833 -0.525731205940 0.500000119209
vn -0.951056480408 -0.000000018570 0.309017032385
vn -0.688190817833 -0.525731205940 0.500000119209
vn -0.587784945965 -0.000000042447 0.809017181396
vn -0.587784945965 -0.000000042447 0.809017181396
vn -0.688190817833 -0.525731205940 0.500000119209
vn -0.276392787695 -0.447213619947 0.850650906563
vn 0.276393264532 0.447213590145 0.850650787354
vn 0.000000238764 -0.000000034488 1.000000000000
vn 0.587785243988 -0.000000037141 0.809017002583
vn 0.000000238764 -0.000000034488 1.000000000000
vn -0.276392787695 -0.447213619947 0.850650906563
vn 0.262865632772 -0.525731086731 0.809017002583
vn 0.000000238764 -0.000000034488 1.000000000000
vn 0.262865632772 -0.525731086731 0.809017002583
vn 0.587785243988 -0.000000037141 0.809017002583
vn 0.587785243988 -0.000000037141 0.809017002583
vn 0.262865632772 -0.525731086731 0.809017002583
vn 0.723606765270 -0.447213590145 0.525731146336
vn 0.723606824875 -0.447213619947 -0.525731086731
vn 0.587785243988 -0.000000002653 -0.809017002583
vn 0.951056540012 0.000000000000 -0.309016972780
vn 0.587785243988 -0.000000002653 -0.809017002583
vn 0.276393204927 0.447213590145 -0.850650846958
vn 0.688190996647 0.525731086731 -0.500000000000
vn 0.587785243988 -0.000000002653 -0.809017002583
vn 0.688190996647 0.525731086731 -0.500000000000
vn 0.951056540012 0.000000000000 -0.309016972780
vn 0.951056540012 0.000000000000 -0.309016972780
vn 0.688190996647 0.525731086731 -0.500000000000
vn 0.894427180290 0.447213619947 -0.000000021025
vn -0.276393294334 -0.447213619947 -0.850650787354
vn -0.587785363197 -0.000000013265 -0.809016942978
vn -0.000000091858 -0.000000063670 -1.000000000000
vn -0.587785363197 -0.000000013265 -0.809016942978
vn -0.723606884480 0.447213530540 -0.525731027126
vn -0.262865632772 0.525731146336 -0.809016942978
vn -0.587785363197 -0.000000013265 -0.809016942978
vn -0.262865632772 0.525731146336 -0.809016942978
vn -0.000000091858 -0.000000063670 -1.000000000000
vn -0.000000091858 -0.000000063670 -1.000000000000
vn -0.262865632772 0.525731146336 -0.809016942978
vn 0.276393204927 0.447213590145 -0.850650846958
vn -0.894427180290 -0.447213560343 0.000000023653
vn -0.951056480408 -0.000000018570 0.309017032385
vn -0.951056540012 -0.000000010612 -0.309016913176
vn -0.951056480408 -0.000000018570 0.309017032385
vn -0.723606705666 0.447213619947 0.525731205940
vn -0.850650846958 0.525731027126 0.000000068976
vn -0.951056480408 -0.000000018570 0.309017032385
vn -0.850650846958 0.525731027126 0.000000068976
vn -0.951056540012 -0.000000010612 -0.309016913176
vn -0.951056540012 -0.000000010612 -0.309016913176
vn -0.850650846958 0.525731027126 0.000000068976
vn -0.723606884480 0.447213530540 -0.525731027126
vn -0.276392787695 -0.447213619947 0.850650906563
vn 0.000000238764 -0.000000034488 1.000000000000
vn -0.587784945965 -0.000000042447 0.809017181396
vn 0.000000238764 -0.000000034488 1.000000000000
vn 0.276393264532 0.447213590145 0.850650787354
vn -0.262865394354 0.525731086731 0.809017062187
vn 0.000000238764 -0.000000034488 1.000000000000
vn -0.262865394354 0.525731086731 0.809017062187
vn -0.587784945965 -0.000000042447 0.809017181396
vn -0.587784945965 -0.000000042447 0.809017181396
vn -0.262865394354 0.525731086731 0.809017062187
vn -0.723606705666 0.447213619947 0.525731205940
vn 0.723606765270 -0.447213590145 0.525731146336
vn 0.951056540012 -0.000000010612 0.309016972780
vn 0.587785243988 -0.000000037141 0.809017002583
vn 0.951056540012 -0.000000010612 0.309016972780
vn 0.894427180290 0.447213619947 -0.000000021025
vn 0.688190996647 0.525731146336 0.499999940395
vn 0.951056540012 -0.000000010612 0.309016972780
vn 0.688190996647 0.525731146336 0.499999940395
vn 0.587785243988 -0.000000037141 0.809017002583
vn 0.587785243988 -0.000000037141 0.809017002583
vn 0.688190996647 0.525731146336 0.499999940395
vn 0.276393264532 0.447213590145 0.850650787354
vn -0.000000015769 -1.000000000000 -0.000000000000
vn -0.162459880114 -0.850650787354 -0.500000000000
vn 0.425325363874 -0.850650846958 -0.309017002583
vn -0.162459880114 -0.850650787354 -0.500000000000
vn -0.276393294334 -0.447213619947 -0.850650787354
vn 0.262865513563 -0.525731146336 -0.809017002583
vn -0.162459880114 -0.850650787354 -0.500000000000
vn 0.262865513563 -0.525731146336 -0.809017002583
vn 0.425325363874 -0.850650846958 -0.309017002583
vn 0.425325363874 -0.850650846958 -0.309017002583
vn 0.262865513563 -0.525731146336 -0.809017002583
vn 0.723606824875 -0.447213619947 -0.525731086731
vn -0.000000015769 -1.000000000000 -0.000000000000
vn -0.525731086731 -0.850650846958 0.000000021223
vn -0.162459880114 -0.850650787354 -0.500000000000
vn -0.525731086731 -0.850650846958 0.000000021223
vn -0.894427180290 -0.447213560343 0.000000023653
vn -0.688191056252 -0.525731086731 -0.499999910593
vn -0.525731086731 -0.850650846958 0.000000021223
vn -0.688191056252 -0.525731086731 -0.499999910593
vn -0.162459880114 -0.850650787354 -0.500000000000
vn -0.162459880114 -0.850650787354 -0.500000000000
vn -0.688191056252 -0.525731086731 -0.499999910593
vn -0.276393294334 -0.447213619947 -0.850650787354
vn -0.000000015769 -1.000000000000 -0.000000000000
vn -0.162459656596 -0.850650846958 0.500000059605
vn -0.525731086731 -0.850650846958 0.000000021223
vn -0.162459656596 -0.850650846958 0.500000059605
vn -0.276392787695 -0.447213619947 0.850650906563
vn -0.688190817833 -0.525731205940 0.500000119209
vn -0.162459656596 -0.850650846958 0.500000059605
vn -0.688190817833 -0.525731205940 0.500000119209
vn -0.525731086731 -0.850650846958 0.000000021223
vn -0.525731086731 -0.850650846958 0.000000021223
vn -0.688190817833 -0.525731205940 0.500000119209
vn -0.894427180290 -0.447213560343 0.000000023653
vn -0.000000015769 -1.000000000000 -0.000000000000
vn 0.425325423479 -0.850650787354 0.309017032385
vn -0.162459656596 -0.850650846958 0.500000059605
vn 0.425325423479 -0.850650787354 0.309017032385
vn 0.723606765270 -0.447213590145 0.525731146336
vn 0.262865632772 -0.525731086731 0.809017002583
vn 0.425325423479 -0.850650787354 0.309017032385
vn 0.262865632772 -0.525731086731 0.809017002583
vn -0.162459656596 -0.850650846958 0.500000059605
vn -0.162459656596 -0.850650846958 0.500000059605
vn 0.262865632772 -0.525731086731 0.809017002583
vn -0.276392787695 -0.447213619947 0.850650906563
vn -0.000000015769 -1.000000000000 -0.000000000000
vn 0.425325363874 -0.850650846958 -0.309017002583
vn 0.425325423479 -0.850650787354 0.309017032385
vn 0.425325363874 -0.850650846958 -0.309017002583
vn 0.723606824875 -0.447213619947 -0.525731086731
vn 0.850650846958 -0.525731086731 0.000000026529
vn 0.425325363874 -0.850650846958 -0.309017002583
vn 0.850650846958 -0.525731086731 0.000000026529
vn 0.425325423479 -0.850650787354 0.309017032385
vn 0.425325423479 -0.850650787354 0.309017032385
vn 0.850650846958 -0.525731086731 0.000000026529
vn 0.723606765270 -0.447213590145 0.525731146336
# 240 vertex normals

vt 0.400000005960 1.000000000000 10.000000000000
vt 0.500000000000 0.647583663464 10.000000000000
vt 0.699999928474 0.647583544254 10.000000953674
vt 0.900000035763 0.647583663464 10.000000000000
vt 0.100000038743 0.647583663464 10.000000000000
vt 0.300000011921 0.647583663464 10.000000000000
vt 0.599999964237 0.352416396141 10.000000000000
vt 0.800000011921 0.352416396141 10.000000000000
vt 0.000000037945 0.352416396141 10.000000000000
vt 0.200000047684 0.352416396141 10.000000000000
vt 0.400000005960 0.352416396141 10.000000000000
vt 0.500000000000 0.000000000000 10.000000000000
vt 0.500000000000 0.823791801929 10.000000000000
vt 0.699999928474 0.823791801929 10.000000000000
vt 0.900000035763 0.823791801929 10.000000000000
vt 0.100000038743 0.823791801929 10.000000000000
vt 0.300000011921 0.823791801929 10.000000000000
vt 0.599999964237 0.676208138466 10.000000000000
vt 0.800000011921 0.676208138466 10.000000000000
vt 0.000000037945 0.676208138466 10.000000000000
vt 0.200000017881 0.676208138466 10.000000000000
vt 0.400000005960 0.676208198071 10.000000000000
vt 0.549999952316 0.500000000000 10.000000000000
vt 0.750000000000 0.500000000000 10.000000000000
vt 0.950000047684 0.500000000000 9.999999046326
vt 0.150000050664 0.500000000000 10.000000953674
vt 0.350000023842 0.500000000000 10.000000000000
vt 0.449999988079 0.500000000000 10.000000000000
vt 0.650000035763 0.500000000000 10.000000000000
vt 0.850000023842 0.500000000000 10.000000000000
vt 0.050000019372 0.500000000000 10.000000000000
vt 0.250000029802 0.500000000000 9.999999046326
vt 0.699999928474 0.323791831732 10.000000000000
vt 0.900000035763 0.323791831732 10.000000000000
vt 0.100000038743 0.323791772127 10.000000000000
vt 0.300000041723 0.323791861534 9.999999046326
vt 0.500000000000 0.323791831732 10.000000000000
vt 0.599999964237 0.176208212972 10.000000000000
vt 0.800000011921 0.176208212972 10.000000000000
vt 0.000000037945 0.176208212972 10.000000000000
vt 0.200000047684 0.176208212972 10.000000000000
vt 0.400000005960 0.176208212972 10.000000000000
vt 0.599999964237 1.000000000000 10.000000000000
vt 0.799999952316 1.000000000000 10.000000000000
vt 0.000000037253 1.000000000000 10.000000000000
vt -0.099999964237 0.823791801929 10.000000000000
vt -0.099999964237 0.823791801929 10.000000000000
vt -0.099999964237 0.647583663464 10.000000000000
vt -0.099999964237 0.823791801929 10.000000000000
vt 0.200000017881 1.000000000000 10.000000000000
vt -0.049999952316 0.500000000000 9.999999046326
vt -0.099999964237 0.323791831732 10.000000000000
vt -0.049999952316 0.500000000000 9.999999046326
vt -0.049999952316 0.500000000000 9.999999046326
vt -0.049999952316 0.500000000000 9.999999046326
vt -0.099999964237 0.647583663464 10.000000000000
vt 0.699999988079 0.000000000000 10.000000000000
vt -0.099999971688 0.000000000000 10.000000000000
vt -0.199999988079 0.176208212972 10.000000000000
vt -0.099999964237 0.323791831732 10.000000000000
vt -0.099999964237 0.323791831732 10.000000000000
vt -0.199999988079 0.176208212972 10.000000000000
vt 0.100000046194 0.000000000000 10.000000000000
vt 0.300000011921 0.000000000000 10.000000000000
# 64 texture coords

g GeoSphere001
usemtl wire_153228184
s 1
f 1/43/1 2/13/2 3/14/3 
f 2/13/4 4/2/5 5/18/6 
f 2/13/7 5/18/8 3/14/9 
f 3/14/10 5/18/11 6/3/12 
f 1/44/13 3/14/14 7/15/15 
f 3/14/16 6/3/17 8/19/18 
f 3/14/19 8/19/20 7/15/21 
f 7/15/22 8/19/23 9/4/24 
f 1/45/25 7/46/26 10/16/27 
f 7/47/28 9/48/29 11/20/30 
f 7/49/31 11/20/32 10/16/33 
f 10/16/34 11/20/35 12/5/36 
f 1/50/37 10/16/38 13/17/39 
f 10/16/40 12/5/41 14/21/42 
f 10/16/43 14/21/44 13/17/45 
f 13/17/46 14/21/47 15/6/48 
f 1/1/49 13/17/50 2/13/51 
f 13/17/52 15/6/53 16/22/54 
f 13/17/55 16/22/56 2/13/57 
f 2/13/58 16/22/59 4/2/60 
f 4/2/61 17/28/62 18/23/63 
f 17/28/64 19/11/65 20/37/66 
f 17/28/67 20/37/68 18/23/69 
f 18/23/70 20/37/71 21/7/72 
f 6/3/73 22/29/74 23/24/75 
f 22/29/76 21/7/77 24/33/78 
f 22/29/79 24/33/80 23/24/81 
f 23/24/82 24/33/83 25/8/84 
f 9/4/85 26/30/86 27/25/87 
f 26/30/88 25/8/89 28/34/90 
f 26/30/91 28/34/92 27/25/93 
f 27/51/94 28/52/95 29/9/96 
f 12/5/97 30/31/98 31/26/99 
f 30/31/100 29/9/101 32/35/102 
f 30/31/103 32/35/104 31/26/105 
f 31/26/106 32/35/107 33/10/108 
f 15/6/109 34/32/110 35/27/111 
f 34/32/112 33/10/113 36/36/114 
f 34/32/115 36/36/116 35/27/117 
f 35/27/118 36/36/119 19/11/120 
f 21/7/121 22/29/122 18/23/123 
f 22/29/124 6/3/125 5/18/126 
f 22/29/127 5/18/128 18/23/129 
f 18/23/130 5/18/131 4/2/132 
f 25/8/133 26/30/134 23/24/135 
f 26/30/136 9/4/137 8/19/138 
f 26/30/139 8/19/140 23/24/141 
f 23/24/142 8/19/143 6/3/144 
f 29/9/145 30/31/146 27/53/147 
f 30/31/148 12/5/149 11/20/150 
f 30/31/151 11/20/152 27/54/153 
f 27/55/154 11/20/155 9/56/156 
f 33/10/157 34/32/158 31/26/159 
f 34/32/160 15/6/161 14/21/162 
f 34/32/163 14/21/164 31/26/165 
f 31/26/166 14/21/167 12/5/168 
f 19/11/169 17/28/170 35/27/171 
f 17/28/172 4/2/173 16/22/174 
f 17/28/175 16/22/176 35/27/177 
f 35/27/178 16/22/179 15/6/180 
f 37/57/181 38/39/182 39/38/183 
f 38/39/184 25/8/185 24/33/186 
f 38/39/187 24/33/188 39/38/189 
f 39/38/190 24/33/191 21/7/192 
f 37/58/193 40/40/194 38/59/195 
f 40/40/196 29/9/197 28/60/198 
f 40/40/199 28/61/200 38/62/201 
f 38/39/202 28/34/203 25/8/204 
f 37/63/205 41/41/206 40/40/207 
f 41/41/208 33/10/209 32/35/210 
f 41/41/211 32/35/212 40/40/213 
f 40/40/214 32/35/215 29/9/216 
f 37/64/217 42/42/218 41/41/219 
f 42/42/220 19/11/221 36/36/222 
f 42/42/223 36/36/224 41/41/225 
f 41/41/226 36/36/227 33/10/228 
f 37/12/229 39/38/230 42/42/231 
f 39/38/232 21/7/233 20/37/234 
f 39/38/235 20/37/236 42/42/237 
f 42/42/238 20/37/239 19/11/240 
# 0 polygons - 80 triangles

