# 3ds Max Wavefront OBJ Exporter v0.97b - (c)2007 guruware
# File Created: 06.12.2015 21:08:12

mtllib grid_cube.mtl

#
# object Default
#

v  -0.500000000000 1.000000000000 1.011482477188
v  -1.000000000000 1.000000000000 1.011482477188
v  -1.000000000000 0.500000000000 1.011482477188
v  -0.500000000000 0.500000000000 1.011482477188
v  -1.000000000000 0.000000000000 1.011482477188
v  -0.500000000000 0.000000000000 1.011482477188
v  0.000000000000 0.000000000000 1.011482477188
v  0.000000000000 0.500000000000 1.011482477188
v  0.000000000000 1.000000000000 1.011482477188
v  -1.000000000000 -0.500000000000 1.011482477188
v  -1.000000000000 -1.000000000000 1.011482477188
v  -0.500000000000 -1.000000000000 1.011482477188
v  -0.500000000000 -0.500000000000 1.011482477188
v  0.000000000000 -1.000000000000 1.011482477188
v  0.000000000000 -0.500000000000 1.011482477188
v  0.500000000000 -1.000000000000 1.011482477188
v  1.000000000000 -1.000000000000 1.011482477188
v  1.000000000000 -0.500000000000 1.011482477188
v  0.500000000000 -0.500000000000 1.011482477188
v  1.000000000000 0.000000000000 1.011482477188
v  0.500000000000 0.000000000000 1.011482477188
v  1.000000000000 0.500000000000 1.011482477188
v  1.000000000000 1.000000000000 1.011482477188
v  0.500000000000 1.000000000000 1.011482477188
v  0.500000000000 0.500000000000 1.011482477188
v  1.000000000000 -0.500000000000 -1.011482477188
v  1.000000000000 -1.000000000000 -1.011482477188
v  0.500000000000 -1.000000000000 -1.011482477188
v  0.500000000000 -0.500000000000 -1.011482477188
v  0.000000000000 -1.000000000000 -1.011482477188
v  0.000000000000 -0.500000000000 -1.011482477188
v  0.000000000000 0.000000000000 -1.011482477188
v  0.500000000000 0.000000000000 -1.011482477188
v  1.000000000000 0.000000000000 -1.011482477188
v  -0.500000000000 -1.000000000000 -1.011482477188
v  -1.000000000000 -1.000000000000 -1.011482477188
v  -1.000000000000 -0.500000000000 -1.011482477188
v  -0.500000000000 -0.500000000000 -1.011482477188
v  -1.000000000000 0.000000000000 -1.011482477188
v  -0.500000000000 0.000000000000 -1.011482477188
v  -1.000000000000 0.500000000000 -1.011482477188
v  -1.000000000000 1.000000000000 -1.011482477188
v  -0.500000000000 1.000000000000 -1.011482477188
v  -0.500000000000 0.500000000000 -1.011482477188
v  0.000000000000 1.000000000000 -1.011482477188
v  0.000000000000 0.500000000000 -1.011482477188
v  0.500000000000 1.000000000000 -1.011482477188
v  1.000000000000 1.000000000000 -1.011482477188
v  1.000000000000 0.500000000000 -1.011482477188
v  0.500000000000 0.500000000000 -1.011482477188
v  -0.500000000000 1.000000000000 0.339600712061
v  -1.000000000000 1.000000000000 0.339600712061
v  -1.000000000000 0.500000000000 0.339600712061
v  -0.500000000000 0.500000000000 0.339600712061
v  -1.000000000000 0.000000000000 0.339600712061
v  -0.500000000000 0.000000000000 0.339600712061
v  0.000000000000 0.000000000000 0.339600712061
v  0.000000000000 0.500000000000 0.339600712061
v  0.000000000000 1.000000000000 0.339600712061
v  -1.000000000000 -0.500000000000 0.339600712061
v  -1.000000000000 -1.000000000000 0.339600712061
v  -0.500000000000 -1.000000000000 0.339600712061
v  -0.500000000000 -0.500000000000 0.339600712061
v  0.000000000000 -1.000000000000 0.339600712061
v  0.000000000000 -0.500000000000 0.339600712061
v  0.500000000000 -1.000000000000 0.339600712061
v  1.000000000000 -1.000000000000 0.339600712061
v  1.000000000000 -0.500000000000 0.339600712061
v  0.500000000000 -0.500000000000 0.339600712061
v  1.000000000000 0.000000000000 0.339600712061
v  0.500000000000 0.000000000000 0.339600712061
v  1.000000000000 0.500000000000 0.339600712061
v  1.000000000000 1.000000000000 0.339600712061
v  0.500000000000 1.000000000000 0.339600712061
v  0.500000000000 0.500000000000 0.339600712061
v  1.000000000000 -0.500000000000 -0.339600712061
v  1.000000000000 -1.000000000000 -0.339600712061
v  0.500000000000 -1.000000000000 -0.339600712061
v  0.500000000000 -0.500000000000 -0.339600712061
v  0.000000000000 -1.000000000000 -0.339600712061
v  0.000000000000 -0.500000000000 -0.339600712061
v  0.000000000000 0.000000000000 -0.339600712061
v  0.500000000000 0.000000000000 -0.339600712061
v  1.000000000000 0.000000000000 -0.339600712061
v  -0.500000000000 -1.000000000000 -0.339600712061
v  -1.000000000000 -1.000000000000 -0.339600712061
v  -1.000000000000 -0.500000000000 -0.339600712061
v  -0.500000000000 -0.500000000000 -0.339600712061
v  -1.000000000000 0.000000000000 -0.339600712061
v  -0.500000000000 0.000000000000 -0.339600712061
v  -1.000000000000 0.500000000000 -0.339600712061
v  -1.000000000000 1.000000000000 -0.339600712061
v  -0.500000000000 1.000000000000 -0.339600712061
v  -0.500000000000 0.500000000000 -0.339600712061
v  0.000000000000 1.000000000000 -0.339600712061
v  0.000000000000 0.500000000000 -0.339600712061
v  0.500000000000 1.000000000000 -0.339600712061
v  1.000000000000 1.000000000000 -0.339600712061
v  1.000000000000 0.500000000000 -0.339600712061
v  0.500000000000 0.500000000000 -0.339600712061
# 100 vertices

vn 0.000000000000 0.000000000000 1.000000000000
vn 0.000000000000 0.000000000000 1.000000000000
vn 0.000000000000 0.000000000000 1.000000000000
vn 0.000000000000 0.000000000000 1.000000000000
vn 0.000000000000 0.000000000000 1.000000000000
vn 0.000000000000 0.000000000000 1.000000000000
vn 0.000000000000 0.000000000000 1.000000000000
vn 0.000000000000 0.000000000000 1.000000000000
vn 0.000000000000 0.000000000000 1.000000000000
vn 0.000000000000 0.000000000000 1.000000000000
vn 0.000000000000 0.000000000000 1.000000000000
vn 0.000000000000 0.000000000000 1.000000000000
vn 0.000000000000 0.000000000000 1.000000000000
vn 0.000000000000 0.000000000000 1.000000000000
vn 0.000000000000 0.000000000000 1.000000000000
vn 0.000000000000 0.000000000000 1.000000000000
vn 0.000000000000 0.000000000000 1.000000000000
vn 0.000000000000 0.000000000000 1.000000000000
vn 0.000000000000 0.000000000000 1.000000000000
vn 0.000000000000 0.000000000000 1.000000000000
vn 0.000000000000 0.000000000000 1.000000000000
vn 0.000000000000 0.000000000000 1.000000000000
vn 0.000000000000 0.000000000000 1.000000000000
vn 0.000000000000 0.000000000000 1.000000000000
vn 0.000000000000 0.000000000000 1.000000000000
vn 0.000000000000 0.000000000000 1.000000000000
vn 0.000000000000 0.000000000000 1.000000000000
vn 0.000000000000 0.000000000000 1.000000000000
vn 0.000000000000 0.000000000000 1.000000000000
vn 0.000000000000 0.000000000000 1.000000000000
vn 0.000000000000 0.000000000000 1.000000000000
vn 0.000000000000 0.000000000000 1.000000000000
vn 0.000000000000 0.000000000000 1.000000000000
vn 0.000000000000 0.000000000000 1.000000000000
vn 0.000000000000 0.000000000000 1.000000000000
vn 0.000000000000 0.000000000000 1.000000000000
vn 0.000000000000 0.000000000000 1.000000000000
vn 0.000000000000 0.000000000000 1.000000000000
vn 0.000000000000 0.000000000000 1.000000000000
vn 0.000000000000 0.000000000000 1.000000000000
vn 0.000000000000 0.000000000000 1.000000000000
vn 0.000000000000 0.000000000000 1.000000000000
vn 0.000000000000 0.000000000000 1.000000000000
vn 0.000000000000 0.000000000000 1.000000000000
vn 0.000000000000 0.000000000000 1.000000000000
vn 0.000000000000 0.000000000000 1.000000000000
vn 0.000000000000 0.000000000000 1.000000000000
vn 0.000000000000 0.000000000000 1.000000000000
vn 0.000000000000 0.000000000000 1.000000000000
vn 0.000000000000 0.000000000000 1.000000000000
vn 0.000000000000 0.000000000000 1.000000000000
vn 0.000000000000 0.000000000000 1.000000000000
vn 0.000000000000 0.000000000000 1.000000000000
vn 0.000000000000 0.000000000000 1.000000000000
vn 0.000000000000 0.000000000000 1.000000000000
vn 0.000000000000 0.000000000000 1.000000000000
vn 0.000000000000 0.000000000000 1.000000000000
vn 0.000000000000 0.000000000000 1.000000000000
vn 0.000000000000 0.000000000000 1.000000000000
vn 0.000000000000 0.000000000000 1.000000000000
vn 0.000000000000 0.000000000000 1.000000000000
vn 0.000000000000 0.000000000000 1.000000000000
vn 0.000000000000 0.000000000000 1.000000000000
vn 0.000000000000 0.000000000000 1.000000000000
vn 0.000000000000 0.000000000000 -1.000000000000
vn 0.000000000000 0.000000000000 -1.000000000000
vn 0.000000000000 0.000000000000 -1.000000000000
vn 0.000000000000 0.000000000000 -1.000000000000
vn 0.000000000000 0.000000000000 -1.000000000000
vn 0.000000000000 0.000000000000 -1.000000000000
vn 0.000000000000 0.000000000000 -1.000000000000
vn 0.000000000000 0.000000000000 -1.000000000000
vn 0.000000000000 0.000000000000 -1.000000000000
vn 0.000000000000 0.000000000000 -1.000000000000
vn 0.000000000000 0.000000000000 -1.000000000000
vn 0.000000000000 0.000000000000 -1.000000000000
vn 0.000000000000 0.000000000000 -1.000000000000
vn 0.000000000000 0.000000000000 -1.000000000000
vn 0.000000000000 0.000000000000 -1.000000000000
vn 0.000000000000 0.000000000000 -1.000000000000
vn 0.000000000000 0.000000000000 -1.000000000000
vn 0.000000000000 0.000000000000 -1.000000000000
vn 0.000000000000 0.000000000000 -1.000000000000
vn 0.000000000000 0.000000000000 -1.000000000000
vn 0.000000000000 0.000000000000 -1.000000000000
vn 0.000000000000 0.000000000000 -1.000000000000
vn 0.000000000000 0.000000000000 -1.000000000000
vn 0.000000000000 0.000000000000 -1.000000000000
vn 0.000000000000 0.000000000000 -1.000000000000
vn 0.000000000000 0.000000000000 -1.000000000000
vn 0.000000000000 0.000000000000 -1.000000000000
vn 0.000000000000 0.000000000000 -1.000000000000
vn 0.000000000000 0.000000000000 -1.000000000000
vn 0.000000000000 0.000000000000 -1.000000000000
vn 0.000000000000 0.000000000000 -1.000000000000
vn 0.000000000000 0.000000000000 -1.000000000000
vn 0.000000000000 0.000000000000 -1.000000000000
vn 0.000000000000 0.000000000000 -1.000000000000
vn 0.000000000000 0.000000000000 -1.000000000000
vn 0.000000000000 0.000000000000 -1.000000000000
vn 0.000000000000 0.000000000000 -1.000000000000
vn 0.000000000000 0.000000000000 -1.000000000000
vn 0.000000000000 0.000000000000 -1.000000000000
vn 0.000000000000 0.000000000000 -1.000000000000
vn 0.000000000000 0.000000000000 -1.000000000000
vn 0.000000000000 0.000000000000 -1.000000000000
vn 0.000000000000 0.000000000000 -1.000000000000
vn 0.000000000000 0.000000000000 -1.000000000000
vn 0.000000000000 0.000000000000 -1.000000000000
vn 0.000000000000 0.000000000000 -1.000000000000
vn 0.000000000000 0.000000000000 -1.000000000000
vn 0.000000000000 0.000000000000 -1.000000000000
vn 0.000000000000 0.000000000000 -1.000000000000
vn 0.000000000000 0.000000000000 -1.000000000000
vn 0.000000000000 0.000000000000 -1.000000000000
vn 0.000000000000 0.000000000000 -1.000000000000
vn 0.000000000000 0.000000000000 -1.000000000000
vn 0.000000000000 0.000000000000 -1.000000000000
vn 0.000000000000 0.000000000000 -1.000000000000
vn 0.000000000000 0.000000000000 -1.000000000000
vn 0.000000000000 0.000000000000 -1.000000000000
vn 0.000000000000 0.000000000000 -1.000000000000
vn 0.000000000000 0.000000000000 -1.000000000000
vn 0.000000000000 0.000000000000 -1.000000000000
vn 0.000000000000 0.000000000000 -1.000000000000
vn 0.000000000000 0.000000000000 -1.000000000000
vn 0.000000000000 0.000000000000 -1.000000000000
vn 0.000000000000 0.000000000000 -1.000000000000
vn 0.000000000000 0.000000000000 1.000000000000
vn 0.000000000000 0.000000000000 1.000000000000
vn 0.000000000000 0.000000000000 1.000000000000
vn 0.000000000000 0.000000000000 1.000000000000
vn 0.000000000000 0.000000000000 1.000000000000
vn 0.000000000000 0.000000000000 1.000000000000
vn 0.000000000000 0.000000000000 1.000000000000
vn 0.000000000000 0.000000000000 1.000000000000
vn 0.000000000000 0.000000000000 1.000000000000
vn 0.000000000000 0.000000000000 1.000000000000
vn 0.000000000000 0.000000000000 1.000000000000
vn 0.000000000000 0.000000000000 1.000000000000
vn 0.000000000000 0.000000000000 1.000000000000
vn 0.000000000000 0.000000000000 1.000000000000
vn 0.000000000000 0.000000000000 1.000000000000
vn 0.000000000000 0.000000000000 1.000000000000
vn 0.000000000000 0.000000000000 1.000000000000
vn 0.000000000000 0.000000000000 1.000000000000
vn 0.000000000000 0.000000000000 1.000000000000
vn 0.000000000000 0.000000000000 1.000000000000
vn 0.000000000000 0.000000000000 1.000000000000
vn 0.000000000000 0.000000000000 1.000000000000
vn 0.000000000000 0.000000000000 1.000000000000
vn 0.000000000000 0.000000000000 1.000000000000
vn 0.000000000000 0.000000000000 1.000000000000
vn 0.000000000000 0.000000000000 1.000000000000
vn 0.000000000000 0.000000000000 1.000000000000
vn 0.000000000000 0.000000000000 1.000000000000
vn 0.000000000000 0.000000000000 1.000000000000
vn 0.000000000000 0.000000000000 1.000000000000
vn 0.000000000000 0.000000000000 1.000000000000
vn 0.000000000000 0.000000000000 1.000000000000
vn 0.000000000000 0.000000000000 1.000000000000
vn 0.000000000000 0.000000000000 1.000000000000
vn 0.000000000000 0.000000000000 1.000000000000
vn 0.000000000000 0.000000000000 1.000000000000
vn 0.000000000000 0.000000000000 1.000000000000
vn 0.000000000000 0.000000000000 1.000000000000
vn 0.000000000000 0.000000000000 1.000000000000
vn 0.000000000000 0.000000000000 1.000000000000
vn 0.000000000000 0.000000000000 1.000000000000
vn 0.000000000000 0.000000000000 1.000000000000
vn 0.000000000000 0.000000000000 1.000000000000
vn 0.000000000000 0.000000000000 1.000000000000
vn 0.000000000000 0.000000000000 1.000000000000
vn 0.000000000000 0.000000000000 1.000000000000
vn 0.000000000000 0.000000000000 1.000000000000
vn 0.000000000000 0.000000000000 1.000000000000
vn 0.000000000000 0.000000000000 1.000000000000
vn 0.000000000000 0.000000000000 1.000000000000
vn 0.000000000000 0.000000000000 1.000000000000
vn 0.000000000000 0.000000000000 1.000000000000
vn 0.000000000000 0.000000000000 1.000000000000
vn 0.000000000000 0.000000000000 1.000000000000
vn 0.000000000000 0.000000000000 1.000000000000
vn 0.000000000000 0.000000000000 1.000000000000
vn 0.000000000000 0.000000000000 1.000000000000
vn 0.000000000000 0.000000000000 1.000000000000
vn 0.000000000000 0.000000000000 1.000000000000
vn 0.000000000000 0.000000000000 1.000000000000
vn 0.000000000000 0.000000000000 1.000000000000
vn 0.000000000000 0.000000000000 1.000000000000
vn 0.000000000000 0.000000000000 1.000000000000
vn 0.000000000000 0.000000000000 1.000000000000
vn 0.000000000000 0.000000000000 -1.000000000000
vn 0.000000000000 0.000000000000 -1.000000000000
vn 0.000000000000 0.000000000000 -1.000000000000
vn 0.000000000000 0.000000000000 -1.000000000000
vn 0.000000000000 0.000000000000 -1.000000000000
vn 0.000000000000 0.000000000000 -1.000000000000
vn 0.000000000000 0.000000000000 -1.000000000000
vn 0.000000000000 0.000000000000 -1.000000000000
vn 0.000000000000 0.000000000000 -1.000000000000
vn 0.000000000000 0.000000000000 -1.000000000000
vn 0.000000000000 0.000000000000 -1.000000000000
vn 0.000000000000 0.000000000000 -1.000000000000
vn 0.000000000000 0.000000000000 -1.000000000000
vn 0.000000000000 0.000000000000 -1.000000000000
vn 0.000000000000 0.000000000000 -1.000000000000
vn 0.000000000000 0.000000000000 -1.000000000000
vn 0.000000000000 0.000000000000 -1.000000000000
vn 0.000000000000 0.000000000000 -1.000000000000
vn 0.000000000000 0.000000000000 -1.000000000000
vn 0.000000000000 0.000000000000 -1.000000000000
vn 0.000000000000 0.000000000000 -1.000000000000
vn 0.000000000000 0.000000000000 -1.000000000000
vn 0.000000000000 0.000000000000 -1.000000000000
vn 0.000000000000 0.000000000000 -1.000000000000
vn 0.000000000000 0.000000000000 -1.000000000000
vn 0.000000000000 0.000000000000 -1.000000000000
vn 0.000000000000 0.000000000000 -1.000000000000
vn 0.000000000000 0.000000000000 -1.000000000000
vn 0.000000000000 0.000000000000 -1.000000000000
vn 0.000000000000 0.000000000000 -1.000000000000
vn 0.000000000000 0.000000000000 -1.000000000000
vn 0.000000000000 0.000000000000 -1.000000000000
vn 0.000000000000 0.000000000000 -1.000000000000
vn 0.000000000000 0.000000000000 -1.000000000000
vn 0.000000000000 0.000000000000 -1.000000000000
vn 0.000000000000 0.000000000000 -1.000000000000
vn 0.000000000000 0.000000000000 -1.000000000000
vn 0.000000000000 0.000000000000 -1.000000000000
vn 0.000000000000 0.000000000000 -1.000000000000
vn 0.000000000000 0.000000000000 -1.000000000000
vn 0.000000000000 0.000000000000 -1.000000000000
vn 0.000000000000 0.000000000000 -1.000000000000
vn 0.000000000000 0.000000000000 -1.000000000000
vn 0.000000000000 0.000000000000 -1.000000000000
vn 0.000000000000 0.000000000000 -1.000000000000
vn 0.000000000000 0.000000000000 -1.000000000000
vn 0.000000000000 0.000000000000 -1.000000000000
vn 0.000000000000 0.000000000000 -1.000000000000
vn 0.000000000000 0.000000000000 -1.000000000000
vn 0.000000000000 0.000000000000 -1.000000000000
vn 0.000000000000 0.000000000000 -1.000000000000
vn 0.000000000000 0.000000000000 -1.000000000000
vn 0.000000000000 0.000000000000 -1.000000000000
vn 0.000000000000 0.000000000000 -1.000000000000
vn 0.000000000000 0.000000000000 -1.000000000000
vn 0.000000000000 0.000000000000 -1.000000000000
vn 0.000000000000 0.000000000000 -1.000000000000
vn 0.000000000000 0.000000000000 -1.000000000000
vn 0.000000000000 0.000000000000 -1.000000000000
vn 0.000000000000 0.000000000000 -1.000000000000
vn 0.000000000000 0.000000000000 -1.000000000000
vn 0.000000000000 0.000000000000 -1.000000000000
vn 0.000000000000 0.000000000000 -1.000000000000
vn 0.000000000000 0.000000000000 -1.000000000000
# 256 vertex normals

g Default
usemtl _cubeDefault
s off
f 1//1 2//2 3//3 4//4 
f 3//5 5//6 6//7 4//8 
f 6//9 7//10 8//11 4//12 
f 8//13 9//14 1//15 4//16 
f 10//17 11//18 12//19 13//20 
f 12//21 14//22 15//23 13//24 
f 15//25 7//26 6//27 13//28 
f 6//29 5//30 10//31 13//32 
f 16//33 17//34 18//35 19//36 
f 18//37 20//38 21//39 19//40 
f 21//41 7//42 15//43 19//44 
f 15//45 14//46 16//47 19//48 
f 22//49 23//50 24//51 25//52 
f 24//53 9//54 8//55 25//56 
f 8//57 7//58 21//59 25//60 
f 21//61 20//62 22//63 25//64 
f 26//65 27//66 28//67 29//68 
f 28//69 30//70 31//71 29//72 
f 31//73 32//74 33//75 29//76 
f 33//77 34//78 26//79 29//80 
f 35//81 36//82 37//83 38//84 
f 37//85 39//86 40//87 38//88 
f 40//89 32//90 31//91 38//92 
f 31//93 30//94 35//95 38//96 
f 41//97 42//98 43//99 44//100 
f 43//101 45//102 46//103 44//104 
f 46//105 32//106 40//107 44//108 
f 40//109 39//110 41//111 44//112 
f 47//113 48//114 49//115 50//116 
f 49//117 34//118 33//119 50//120 
f 33//121 32//122 46//123 50//124 
f 46//125 45//126 47//127 50//128 
f 51//129 52//130 53//131 54//132 
f 53//133 55//134 56//135 54//136 
f 56//137 57//138 58//139 54//140 
f 58//141 59//142 51//143 54//144 
f 60//145 61//146 62//147 63//148 
f 62//149 64//150 65//151 63//152 
f 65//153 57//154 56//155 63//156 
f 56//157 55//158 60//159 63//160 
f 66//161 67//162 68//163 69//164 
f 68//165 70//166 71//167 69//168 
f 71//169 57//170 65//171 69//172 
f 65//173 64//174 66//175 69//176 
f 72//177 73//178 74//179 75//180 
f 74//181 59//182 58//183 75//184 
f 58//185 57//186 71//187 75//188 
f 71//189 70//190 72//191 75//192 
f 76//193 77//194 78//195 79//196 
f 78//197 80//198 81//199 79//200 
f 81//201 82//202 83//203 79//204 
f 83//205 84//206 76//207 79//208 
f 85//209 86//210 87//211 88//212 
f 87//213 89//214 90//215 88//216 
f 90//217 82//218 81//219 88//220 
f 81//221 80//222 85//223 88//224 
f 91//225 92//226 93//227 94//228 
f 93//229 95//230 96//231 94//232 
f 96//233 82//234 90//235 94//236 
f 90//237 89//238 91//239 94//240 
f 97//241 98//242 99//243 100//244 
f 99//245 84//246 83//247 100//248 
f 83//249 82//250 96//251 100//252 
f 96//253 95//254 97//255 100//256 
# 64 polygons

